<svg xmlns="http://www.w3.org/2000/svg" width="164" height="164" viewBox="0 0 164 164">
  <defs>
    <style>
      .cls-1 {
        fill: #57f0ff;
        fill-rule: evenodd;
      }
    </style>
  </defs>
  <path id="dice_1" class="cls-1" d="M28,5H146a23,23,0,0,1,23,23V146a23,23,0,0,1-23,23H28A23,23,0,0,1,5,146V28A23,23,0,0,1,28,5Zm0,13H145a10,10,0,0,1,10,10V145a10,10,0,0,1-10,10H28a10,10,0,0,1-10-10V28A10,10,0,0,1,28,18ZM87.359,55.188A32.172,32.172,0,1,1,55.188,87.359,32.172,32.172,0,0,1,87.359,55.188Z" transform="translate(-5 -5)"/>
</svg>
