<svg xmlns="http://www.w3.org/2000/svg" width="164" height="164" viewBox="0 0 164 164">
  <defs>
    <style>
      .cls-1 {
        fill: #57f0ff;
        fill-rule: evenodd;
      }
    </style>
  </defs>
  <path id="dice_6" class="cls-1" d="M29,5H147a23,23,0,0,1,23,23V146a23,23,0,0,1-23,23H29A23,23,0,0,1,6,146V28A23,23,0,0,1,29,5Zm0,13H146a10,10,0,0,1,10,10V145a10,10,0,0,1-10,10H29a10,10,0,0,1-10-10V28A10,10,0,0,1,29,18Zm28.5,4A20.5,20.5,0,1,1,37,42.5,20.5,20.5,0,0,1,57.5,22Zm0,88A20.5,20.5,0,1,1,37,130.5,20.5,20.5,0,0,1,57.5,110Zm0-44A20.5,20.5,0,1,1,37,86.5,20.5,20.5,0,0,1,57.5,66Zm59-44A20.5,20.5,0,1,1,96,42.5,20.5,20.5,0,0,1,116.5,22Zm0,88A20.5,20.5,0,1,1,96,130.5,20.5,20.5,0,0,1,116.5,110Zm0-44A20.5,20.5,0,1,1,96,86.5,20.5,20.5,0,0,1,116.5,66Z" transform="translate(-6 -5)"/>
</svg>
