<svg xmlns="http://www.w3.org/2000/svg" width="164" height="164" viewBox="0 0 164 164">
  <defs>
    <style>
      .cls-1 {
        fill: #57f0ff;
        fill-rule: evenodd;
      }
    </style>
  </defs>
  <path id="dice_4" class="cls-1" d="M29,5H147a23,23,0,0,1,23,23V146a23,23,0,0,1-23,23H29A23,23,0,0,1,6,146V28A23,23,0,0,1,29,5Zm0,13H146a10,10,0,0,1,10,10V145a10,10,0,0,1-10,10H29a10,10,0,0,1-10-10V28A10,10,0,0,1,29,18ZM52,28A21,21,0,1,1,31,49,21,21,0,0,1,52,28Zm70,74a21,21,0,1,1-21,21A21,21,0,0,1,122,102Zm0-74a21,21,0,1,1-21,21A21,21,0,0,1,122,28ZM52,102a21,21,0,1,1-21,21A21,21,0,0,1,52,102Z" transform="translate(-6 -5)"/>
</svg>
